<svg id="Layer_1" data-name="Layer 1" xmlns="http://www.w3.org/2000/svg" viewBox="0 0 1920 1080"><defs><style>.cls-1{fill:#eac3e8;}.cls-2{fill:#ccf2ff;}</style></defs><circle class="cls-1" cx="960" cy="540" r="444.91"/><path class="cls-2" d="M1180.22,912.79a.64.64,0,0,1-.57-.39.54.54,0,0,1,.12-.62c14.54-16,10.84-25.93,7.35-30.44-2.83-3.65-7.51-5.5-13.91-5.5-11.69,0-25.93,6.09-31.51,8.7a.53.53,0,0,1-.24.06.52.52,0,0,1-.38-.17.6.6,0,0,1-.17-.43c.24-9.2-16-31.19-34.79-56.66-18.55-25.12-39.57-53.6-46.14-72.52-1.34-3.86-8.48-13.39-14.28-13.39a4.74,4.74,0,0,0-3.58,1.62c-3,3.19-4,11.14-3.15,23.65,3,42.1,42.13,100.25,43.79,102.7a1.26,1.26,0,0,0,.32.33c2.07,1.55,21,15.17,46.26,16.33a.6.6,0,0,1,.16,1.17c-10.36,3.43-29.1,9.18-38.3,9.18a14.44,14.44,0,0,1-2.22-.15c-3.77-.59-14-.88-30.56-.88-18.76,0-39.37.38-43.31.46a.62.62,0,0,1-.5-.25c-2.67-3.8-56.45-117.61-51.16-164.47.9-8-7.87-42.06-13.28-48.11a2.73,2.73,0,0,0-1.95-1.14,1.66,1.66,0,0,0-1.23.59c-2.45,2.6-2.91,15.1-1.42,38.19,5.51,85,33.2,160.05,33.48,160.8,0,0,2.05,6.28-.8,10.23-1.59,2.2-4.42,3.32-8.42,3.32a36.88,36.88,0,0,1-9.29-1.42,129.26,129.26,0,0,0-14.88-2.52c-15.36-2.06-36.39-4.87-53.09-17.71-19.85-15.25-29.43-40.83-29.31-78.2.34-98.91,6.57-139.23,6.84-140.9,1-4.38,9.88-42.69,5.28-48.49a2.06,2.06,0,0,0-1.66-.85c-3.46,0-9.74,9.05-19.22,27.67-15.29,30-23,76.92-21.2,128.6,1.56,44.54,9.94,84.5,20.85,99.42a.56.56,0,0,1,.06.62.59.59,0,0,1-.51.34.77.77,0,0,1-.28-.07c-18.63-9.11-81.08-41-102.49-69.75-14.87-20-14.76-54.64-13.38-73.54,1.9-25.74,8.34-53.42,15.67-67.33,2.31-4.38,5.57-10.16,9.34-16.85,16.23-28.74,29.41-53,26.28-58.34a2.35,2.35,0,0,0-2.17-1.15c-2.84,0-8.08,3.3-16,10.08-8.57,7.32-30.13,30.88-45.27,91.41-8.41,33.62-11,65.31-6.58,78.29-15.22-16.75-56.21-64.43-70.35-106.57C631,595.68,728.8,521.36,742.61,513.23l.92-.54c14.44-8.5,25.41-15.31,24.39-19-.4-1.49-2.46-2.18-6.47-2.18a89.25,89.25,0,0,0-12.87,1.28A629.11,629.11,0,0,0,673.7,510c-44.66,13.38-59.45,25-64,32.36a12.12,12.12,0,0,0-1.59,10.42.54.54,0,0,1-.07.51.67.67,0,0,1-.52.27.59.59,0,0,1-.46-.23c-18.91-22.82-12.7-58.22-7.32-77.29,18.46-65.45,19.52-73.7,16.32-83.34-.3-.91-.77-2.1-1.32-3.47-3.24-8.14-9.28-23.31-2.68-36.39,4.47-8.86,14.15-15.3,28.76-19.13l.12,0c25.17-8.77,47.24-13.22,65.59-13.22,29.9,0,50.62,11.8,61.57,35.08l0,.1c.44,1.73,24.16,35.86,27.26,37.91,4.74,3.12,9.11,4.71,13,4.71,11.59,0,15-14.17,15-14.31.78-10.7-30.6-49.91-45.34-62.94a37.14,37.14,0,0,1-7.66-9.26c-9.17-15.87-19.1-40.9-14.28-70.05,4.85-29.35,23.51-55.89,55.46-78.91.55-.36,13.26-8.49,32.82-12.56,9-1.88,19.55-2.63,29.73-3.35,12.43-.87,25.29-1.78,35.11-4.8,4.18-1.28,10.66-1.94,19.26-1.94,23,0,53.54,4.64,58.8,6.54,2,.73,4.16,1.4,6.21,2,5.53,1.73,10.75,3.37,13.25,5.94,1.88,1.93,5,8.2,7.49,14.35-2.35-4.44-5.62-8.82-10-11a1.29,1.29,0,0,0-.5-.14l-.38,0c-2.36,0-11.57,1.87-30.89,25.91-17.37,21.62-29.55,48.58-34.75,60.09a58.15,58.15,0,0,1-2.71,5.65c-1.41,1.19-18.27,32.91-20.19,36.53-.86,1.81-8.22,17.62-5.47,22a2.5,2.5,0,0,0,2.24,1.16c2.8,0,7.63-3.19,14.76-9.77,4.47-4.53,11.77-16.42,20.22-30.19,13-21.18,29.19-47.54,39.51-53.42l.21-.14A53.17,53.17,0,0,0,996,206.1c3.85-4.72,7.83-9.6,23.92-18.78a.39.39,0,0,1,.14,0,13.15,13.15,0,0,1,1.35-.06c5.2,0,21.29,2,58.22,20.59,45.09,22.69,73.66,33.72,74.85,34.17l0,0,.13,0c.27,0,5.62,1.06,12.61,5.72a36.52,36.52,0,0,0-13.76-2.44,65.76,65.76,0,0,0-21,3.91,104.87,104.87,0,0,1-23.37,5.34c-11.43,1.49-20.46,2.66-51.9,22-.28.15-29.58,16.49-41.93,34.85a.31.31,0,0,1-.07.09l-30.45,29c-2.38,2.39-23.09,23.39-21.24,27.85a1.77,1.77,0,0,0,1.84,1c2.78,0,8.94-3,18.84-9.05l.18-.13c40.39-32.05,105.14-65,164.94-83.95a30.91,30.91,0,0,1,9.32-1.42h.91l12.9.37a33.45,33.45,0,0,1,23.95,11.1c2,2.28,4.24,4.8,6.56,7.47,15.33,17.56,36.18,41.46,56.68,50.16-8.33,1.82-17.09,3.4-25.57,4.94-9.16,1.66-17.82,3.23-23.93,4.76-1.24.28-30.74,6.86-44.51,16.12-13.55,9.12-65.57,26.13-67.78,26.85-1.54.27-37.89,6.7-51.44,13.43-13.4,6.67-47.68,16-49.13,16.36l-.17.05-17.92,7.14a1.41,1.41,0,0,0-.38.21c-2.52,1.92-15,11.84-12.84,18.33,1.09,3.3,5.76,5.05,13.9,5.19h1c15.51,0,42.88-5.69,69.35-11.2,22.2-4.63,43.17-9,53.1-9a17.47,17.47,0,0,1,3.83.34,1.24,1.24,0,0,0,.33,0,.9.9,0,0,0,.23,0,120,120,0,0,1,18.79-1.31c49.06,0,135,22.07,168.84,63.52,3.81,4.07,5.27,26.76,6.82,50.79,1.51,23.46,3.22,50,7.4,66.42a.57.57,0,0,1-.09.51.65.65,0,0,1-.5.24.56.56,0,0,1-.48-.27c-19.43-28.73-52.15-49-100-61.82l-.11,0-144.43-26.7h-.13c-3.78,0-36.92.39-38.47,8.75-.86,4.64,7.78,10.41,26.42,17.66a1.7,1.7,0,0,0,.59.1c6.46,0,113.15,5,118,8.21.67.36,68,36.61,71.53,38.66,55.32,32.36,55.15,34.08,52.29,62.8a292.93,292.93,0,0,0-1.23,52.2c-.23,2.76-2.15,27.09.81,32a.56.56,0,0,1,.08.26c.08,2.11.53,20.84-5.49,28a.48.48,0,0,1-.37.2.63.63,0,0,1-.51-.33.53.53,0,0,1,0-.57c4.29-6.31,7.08-18.47-4-40.59-14-27.84-46.71-44-71.74-52.65l-1-.36c-7-2.42-33.67-10.44-42.45-13.07l-3.1-.94c-.45-.22-2.39-1.76-4.86-3.72-6.57-5.2-17.57-13.91-23.46-15.84-3-1-11.53-2.35-19.69-2.35s-18.7,1.36-21.33,7.84c-2.51,6.17,2.71,15.63,15.52,28.1a1.59,1.59,0,0,0,.33.25c4.21,2.26,41.28,22.17,47.08,23.84,6.85,2,28.41,17,52.42,36.56,25,20.33,41.86,36.72,43,41.75,1.33,5.89-.26,7.26-2.91,9.52a21,21,0,0,0-7.37,11.23c-2.33,7.65-12.26,22.27-21,35.17-7.19,10.58-13.4,19.72-13.77,22.71-.66,5.22-16.49,39.85-28.49,48.45A.65.65,0,0,1,1180.22,912.79Zm94.2-566.53a34.79,34.79,0,0,1-11.38-2.08c19.07-4.37,28.93-8.7,31.17-13.76a11.72,11.72,0,0,1-3.66,10.34A26.48,26.48,0,0,1,1274.42,346.26Z"/><path d="M928.49,140.64c23,0,53.39,4.62,58.63,6.51,2,.74,4.17,1.4,6.23,2,5.47,1.71,10.63,3.33,13,5.81,1.27,1.3,3.1,4.59,4.92,8.47a20.16,20.16,0,0,0-6.8-5.88,1.79,1.79,0,0,0-.67-.2l-.43,0c-2.42,0-11.82,1.88-31.28,26.1-17.41,21.67-29.61,48.66-34.82,60.19-1.25,2.76-2.33,5.14-2.63,5.53-1.76,1.89-15.91,28.44-20.27,36.67-.86,1.81-8.33,17.85-5.44,22.43a3,3,0,0,0,2.67,1.39c2.94,0,7.88-3.24,15.14-9.94,4.48-4.55,11.8-16.46,20.27-30.26,13-21.13,29.12-47.42,39.33-53.24l.27-.18a53.72,53.72,0,0,0,9.71-9.66c3.82-4.68,7.77-9.53,23.73-18.64a12,12,0,0,1,1.29-.06c4,0,20.13,1.48,58,20.54,45.18,22.74,73.7,33.73,74.89,34.19l.26.07a31.89,31.89,0,0,1,8.77,3.44,40.26,40.26,0,0,0-9.83-1.15,65.94,65.94,0,0,0-21.19,3.94,104.78,104.78,0,0,1-23.27,5.32c-11.5,1.49-20.57,2.67-52.07,22.08-1.2.67-29.7,16.56-42.11,35l-30.47,29c-.06.05-5.82,5.84-11.28,12.08C963,363.83,962.39,367.05,963,368.56a2.25,2.25,0,0,0,2.3,1.3c2.88,0,9.12-3,19.1-9.13a1.88,1.88,0,0,0,.23-.16c40.35-32,105-64.93,164.78-83.86a30.24,30.24,0,0,1,9.17-1.4h.89l12.9.37A32.92,32.92,0,0,1,1196,286.62c2,2.28,4.24,4.8,6.57,7.47,15,17.2,35.29,40.45,55.44,49.67-7.87,1.68-16.08,3.16-24,4.61-9.17,1.66-17.83,3.23-23.94,4.76-1.25.28-30.87,6.9-44.69,16.2-13.48,9.07-65,25.92-67.62,26.77-2,.35-38.07,6.78-51.54,13.48s-47.59,15.92-49,16.32l-.22.07L979,433.1a2.22,2.22,0,0,0-.5.28c-2.57,2-15.25,12.07-13,18.89,1.17,3.57,5.87,5.38,14.36,5.53h1c15.57,0,43-5.7,69.46-11.21,22.17-4.62,43.11-9,53-9a16.47,16.47,0,0,1,3.72.33,2.3,2.3,0,0,0,.45.05,1.62,1.62,0,0,0,.3,0,118.89,118.89,0,0,1,18.71-1.31c49,0,134.74,22,168.46,63.34l0,0,0,0c3.66,3.91,5.12,26.52,6.66,50.45,1.51,23.48,3.23,50.09,7.41,66.51,0,.06,0,.07,0,.08a.14.14,0,0,1-.1,0s0,0-.07,0c-19.49-28.83-52.31-49.12-100.33-62l-.15,0-139.64-25.82-4.75-.87a1.15,1.15,0,0,0-.26,0c-6.23,0-37.38.58-39,9.16-.92,5,7.58,10.77,26.74,18.21a2,2,0,0,0,.78.14h0c2.94,0,31.46,1.25,59.39,2.9,49.9,2.93,57.39,4.63,58.29,5.22l0,0,0,0c.67.36,67.92,36.55,71.47,38.63,55,32.2,54.88,33.9,52,62.32a293.5,293.5,0,0,0-1.23,52.25c-.25,2.94-2.16,27.21.9,32.32.07,2.09.51,20.6-5.39,27.64,0,0-.05,0-.05-.07l0,0c4.37-6.42,7.22-18.76-4-41.09-14-28-46.91-44.22-72-52.9l-1-.36c-6.95-2.43-33.67-10.44-42.45-13.08l-3-.91c-.55-.31-2.61-1.94-4.78-3.66-6.6-5.22-17.64-14-23.62-15.92-3-1-11.63-2.37-19.84-2.37-8.43,0-19.06,1.41-21.79,8.14-2.6,6.38,2.66,16,15.63,28.65a1.87,1.87,0,0,0,.45.33c4.21,2.27,41.32,22.19,47.17,23.88,6.8,2,28.28,17,52.25,36.47,24.51,19.95,41.72,36.62,42.82,41.47,1.27,5.6-.16,6.81-2.74,9a21.56,21.56,0,0,0-7.52,11.47c-2.32,7.58-12.22,22.16-21,35-8.35,12.29-13.49,20-13.86,22.93-.65,5.18-16.36,39.57-28.28,48.1a.13.13,0,0,1-.07,0,.18.18,0,0,1-.12-.1s0,0,0-.08a48,48,0,0,0,9-13.64c2.67-6.75,2.13-12.62-1.62-17.45-2.93-3.77-7.74-5.69-14.3-5.69-11.79,0-26.11,6.12-31.72,8.75h0a.06.06,0,0,1,0-.06c.25-9.38-16-31.43-34.89-57C1088,802,1067,773.51,1060.46,754.66c-1.38-4-8.75-13.72-14.75-13.73a5.28,5.28,0,0,0-4,1.77c-3.11,3.34-4.19,11.21-3.28,24,3,42.2,42.21,100.48,43.88,102.94a1.68,1.68,0,0,0,.43.45c2.09,1.56,21.12,15.27,46.54,16.43,0,0,.07,0,.09.08s0,.1-.07.12c-10.33,3.42-29,9.15-38.14,9.15a15,15,0,0,1-2.15-.14c-3.78-.59-14.09-.89-30.63-.89-18.72,0-39.37.38-43.32.46a.09.09,0,0,1-.08,0c-1.23-1.75-15.3-31-28.56-66.24-11.78-31.33-25.24-73.73-22.52-97.88.86-7.6-7.41-41.8-13.4-48.51a3.21,3.21,0,0,0-2.32-1.3,2.18,2.18,0,0,0-1.6.74c-.93,1-3.78,4-1.54,38.58,5.5,85.1,33.22,160.18,33.49,160.9,0,.06,2,6.06-.73,9.8-1.49,2.07-4.19,3.11-8,3.11a36.69,36.69,0,0,1-9.16-1.4,128.91,128.91,0,0,0-14.94-2.53c-15.31-2.05-36.26-4.86-52.86-17.61a66.66,66.66,0,0,1-20.79-27.75c-5.59-13.41-8.38-30.26-8.32-50.06.34-98.82,6.57-139.15,6.83-140.81,1.68-7.14,9.82-43.05,5.19-48.89a2.57,2.57,0,0,0-2.06-1c-2.53,0-7.06,3.17-19.67,28-8.19,16.1-14.16,36.44-17.74,60.45a381.72,381.72,0,0,0-3.51,68.38c1.57,44.64,10,84.71,21,99.71,0,.05,0,.07,0,.09a.15.15,0,0,1-.07.07l-.06,0c-18.6-9.1-81-41-102.31-69.6-14.78-19.82-14.66-54.37-13.28-73.2,1.89-25.68,8.31-53.29,15.61-67.14,2.3-4.37,5.56-10.14,9.34-16.83,16.89-29.91,29.54-53.23,26.27-58.84a2.8,2.8,0,0,0-2.6-1.4c-1.89,0-5.64,1.06-16.35,10.2-8.6,7.35-30.25,31-45.43,91.67-8,32-10.7,62.28-7.16,76.47-6.9-7.67-19-21.66-31.38-38.45-18.47-25-31.06-47.36-37.43-66.34-9-26.75,13.65-59.42,34.22-82.13,24.61-27.17,52.39-47.47,59.73-51.79l.91-.54c15.12-8.9,25.74-15.52,24.63-19.59-.63-2.29-4.28-2.55-7-2.56a89.28,89.28,0,0,0-13,1.3c-25.37,4-123.35,24.06-139.21,49.83-2.24,3.64-2.79,7.28-1.64,10.85a.07.07,0,0,1,0,.06.2.2,0,0,1-.12.06s0,0-.07-.05c-4-4.76-9.14-13.14-11.47-26-2.63-14.46-1.2-31.56,4.24-50.82,18.5-65.59,19.55-73.87,16.31-83.64-.3-.92-.78-2.11-1.32-3.49-3.22-8.07-9.21-23.1-2.71-36,4.41-8.73,14-15.08,28.45-18.88l.15-.05C666.24,325.4,688.25,321,706.55,321c29.69,0,50.25,11.71,61.12,34.8.47,1.88,24.07,36,27.46,38.21,4.83,3.18,9.29,4.79,13.26,4.79,12.21,0,15.49-14.63,15.5-14.77.78-10.83-30.71-50.27-45.51-63.35a37,37,0,0,1-7.56-9.14c-9.13-15.8-19-40.71-14.22-69.72,4.83-29.21,23.43-55.66,55.24-78.57.53-.34,13.18-8.44,32.65-12.5,9-1.87,19.5-2.61,29.66-3.33,12.46-.88,25.35-1.79,35.22-4.82,4.14-1.27,10.57-1.92,19.12-1.92M1293.86,332a11.3,11.3,0,0,1-3.6,8.36,25.94,25.94,0,0,1-15.84,5.41,33.33,33.33,0,0,1-9.52-1.5c16.4-3.88,25.7-7.79,29-12.27M928.49,139.64c-7.9,0-14.84.56-19.41,2-17.71,5.45-44.61,3.93-64.79,8.14s-33,12.61-33,12.64h0C740.56,213.32,747.33,272.87,770,312a37.9,37.9,0,0,0,7.77,9.39c15.3,13.52,45.9,52.45,45.17,62.52,0,.23-3.28,13.85-14.5,13.85-3.44,0-7.63-1.28-12.71-4.63-3.28-2.16-26.71-36.31-27-37.61a1.07,1.07,0,0,0-.07-.19c-11.68-24.83-33.51-35.37-62-35.37-19.24,0-41.52,4.8-65.76,13.25l-.08,0c-48.91,12.84-28.18,50.37-25.1,59.64s2.46,16.42-16.34,83c-12.36,43.82-1.47,67,7.43,77.75a1.08,1.08,0,0,0,.84.41,1.1,1.1,0,0,0,1.07-1.43c-9.35-28.94,106.15-54.08,140-59.39a88.36,88.36,0,0,1,12.8-1.28c16.63,0-4.83,12.43-19.09,20.83-16.8,9.9-111.64,83.69-94.38,135.1,15,44.84,61,96.48,72.47,109C708.54,735.72,730,620,771,585c8.21-7,13.16-10,15.7-10,10.93,0-22.93,54.81-33.9,75.61C739.27,676.26,725.11,758,750.53,792c21.47,28.79,83.83,60.7,102.67,69.91a1.18,1.18,0,0,0,.5.12,1.1,1.1,0,0,0,.86-1.75c-21.27-29.09-34.22-159.48.39-227.5,10.24-20.14,15.92-27.4,18.77-27.4,7.29,0-3.78,47.33-4.1,48.7l0,.06c-.2,1.28-6.5,41.72-6.84,141-.34,100.89,72,92.11,97.65,98.92a37.35,37.35,0,0,0,9.42,1.44c14.46,0,9.69-14.23,9.69-14.23s-27.88-74.71-33.45-160.65c-1.83-28.41-.46-38.25,2.15-38.25,5.29,0,15.67,40.38,14.73,48.7-5.26,46.58,48.38,160.72,51.25,164.81a1.1,1.1,0,0,0,.9.46h0c3.7-.07,24.49-.46,43.3-.46,13.59,0,26.15.2,30.48.87a14.56,14.56,0,0,0,2.3.16c9.36,0,28.52-5.92,38.45-9.2a1.1,1.1,0,0,0-.28-2.15c-25.28-1.16-44.33-15-46-16.23a.8.8,0,0,1-.2-.21c-2-3-40.76-60.59-43.71-102.45-1.34-18.94,1.94-24.74,6.23-24.74,5.46,0,12.53,9.37,13.81,13.05,13,37.52,81.38,110.73,80.91,129a1.06,1.06,0,0,0,1,1.11,1,1,0,0,0,.45-.1c5.11-2.4,19.58-8.66,31.3-8.66,5.55,0,10.49,1.41,13.51,5.31,8,10.37-1.68,23.59-7.32,29.79a1.11,1.11,0,0,0,.82,1.86,1.12,1.12,0,0,0,.66-.23c11.93-8.54,28-43.24,28.68-48.79.8-6.37,30.5-43.74,34.78-57.79s12.91-9.46,10.28-21-80.56-74.3-95.76-78.68c-5.83-1.68-44.53-22.48-47-23.8a1.24,1.24,0,0,1-.23-.17c-29.8-29-12-35.08,5.47-35.07,8.43,0,16.76,1.41,19.53,2.32,8.12,2.65,26.37,18.61,28.32,19.56.1.05,37.13,11.06,45.54,14,8.75,3.06,55.1,18.07,72.49,52.76,11.3,22.54,7.84,34.48,4,40.08a1.08,1.08,0,0,0,.88,1.68,1,1,0,0,0,.75-.37c6.11-7.24,5.7-25.82,5.62-28.32a1.13,1.13,0,0,0-.16-.5c-2.95-4.92-.83-30.61-.74-31.73v-.08c-5.31-84.22,26.9-69.65-51.31-115.4-3.57-2.09-71.51-38.65-71.51-38.65-5-3.33-112.29-8.29-118.23-8.29h-.06a1.05,1.05,0,0,1-.4-.07c-64.29-25,9.85-25.43,11.86-25.44h.08L1208.2,556l.07,0c50.09,13.46,81.24,34.22,99.76,61.61a1.1,1.1,0,0,0,2-.89c-8.54-33.53-6.7-109.27-14.31-117.39-33.34-40.86-118.42-63.71-169.23-63.71a120.82,120.82,0,0,0-18.87,1.32h-.14l-.22,0a17,17,0,0,0-4-.36c-21.53,0-93.62,20.19-122.45,20.19h-1c-29.19-.51-2.8-21.07-.77-22.62a1.43,1.43,0,0,1,.27-.15l17.92-7.13.11,0c1.55-.42,35.83-9.73,49.22-16.39s50-13.16,51.3-13.39l.08,0c1.54-.5,54.17-17.67,67.9-26.9,13.92-9.37,44.35-16.05,44.35-16.05,11.9-3,33-6,51-10.05-24-9.3-48.81-40.49-64.54-58.11a33.85,33.85,0,0,0-24.31-11.26l-12.9-.37h-.92a31.35,31.35,0,0,0-9.47,1.45c-62.76,19.87-126.6,53.48-165.1,84l-.13.09c-10.54,6.48-16.16,9-18.58,9-8.09,0,19.74-28,19.74-28l30.46-29a1.15,1.15,0,0,0,.14-.17c12.42-18.47,41.77-34.71,41.77-34.71,48.08-29.63,43.89-16.6,75.18-27.33a64.5,64.5,0,0,1,20.86-3.88c10.21,0,16.44,3.38,19.56,5.76-9.53-8.33-17.71-9.92-18.33-10l-.07,0c-1.18-.46-29.61-11.41-74.8-34.16-37.51-18.87-53.7-20.64-58.45-20.64a11.43,11.43,0,0,0-1.41.07.81.81,0,0,0-.33.11c-25.75,14.68-20.5,18.24-33.61,28.39a1,1,0,0,1-.15.1c-17,9.67-48.37,72.06-59.81,83.67-7.62,7-12.05,9.64-14.43,9.64-6.95,0,3.67-22.4,3.67-22.4S934,251.07,935.4,249.9s15.06-37.85,37.51-65.8c19.32-24,28.35-25.72,30.5-25.72h.33a.91.91,0,0,1,.33.1c10.29,5.1,14.58,23.58,14.58,23.58.16-4.88-8-24.11-11.54-27.75s-12.15-5.41-19.65-8.11c-5.56-2-36.26-6.57-59-6.57Zm-117.2,22.74ZM1173,251.56c.81.71,1.64,1.47,2.47,2.29a14.55,14.55,0,0,0-2.47-2.29Zm116.7,69.67a19.82,19.82,0,0,1,4.47,7.11c.1-2.17-1.26-4.53-4.47-7.11Zm4.47,7.11c-.31,6.83-15.16,11.76-32.93,15.72a36.46,36.46,0,0,0,13.15,2.7,26.8,26.8,0,0,0,16.44-5.61h0a12.13,12.13,0,0,0,3.32-12.8ZM720.45,756.85a6.86,6.86,0,0,0,2.63,2.81s-.94-1-2.63-2.81Z"/></svg>
