<svg id="Layer_1" data-name="Layer 1" xmlns="http://www.w3.org/2000/svg" viewBox="0 0 1920 1080"><defs><style>.cls-1{fill:#eac3e8;}.cls-2{fill:#ccf2ff;}</style></defs><circle class="cls-1" cx="960" cy="540" r="444.91"/><path class="cls-2" d="M1126.55,871.18c-23.57,0-60.56-16.82-104.16-47.36-45.69-32-95.18-77-139.33-126.64-50.7-57-94.44-120.1-126.49-182.4C719,441.7,696.84,369.49,690.75,300.15a34.39,34.39,0,0,1,9-26.38c15.65-16.83,47.93-47.36,88.23-62.67a34.48,34.48,0,0,1,40.44,12.23c18.45,26.07,52.19,77.43,70.94,128.47a34.05,34.05,0,0,1-3,29.76,581.39,581.39,0,0,1-39.84,56,35.47,35.47,0,0,0-2.47,40.54c20.92,34,66.23,102.48,134.54,178.27a35.48,35.48,0,0,0,26.33,11.73h0a35.17,35.17,0,0,0,11-1.76l52.54-17.23a34.32,34.32,0,0,1,32.86,6.37l105.85,89.26a34.3,34.3,0,0,1,7.45,43.71c-14.54,24.79-40.94,58.78-84.05,79.91A31.72,31.72,0,0,1,1126.55,871.18Z"/><path d="M800.38,208.32v1h0a33.92,33.92,0,0,1,27.68,14.3c18.43,26,52.15,77.37,70.88,128.35a33.58,33.58,0,0,1-3,29.33,580.62,580.62,0,0,1-39.8,56,36,36,0,0,0-2.51,41.11c20.94,34.07,66.27,102.53,134.59,178.35a35.91,35.91,0,0,0,37.86,10.11l52.55-17.24a33.83,33.83,0,0,1,32.38,6.29l105.85,89.25a33.8,33.8,0,0,1,7.34,43.08c-14.51,24.73-40.84,58.64-83.84,79.71a31.35,31.35,0,0,1-13.81,2.76c-23.46,0-60.35-16.79-103.87-47.27-45.67-32-95.12-76.94-139.25-126.57-50.67-57-94.39-120-126.41-182.29-37.56-73-59.69-145.17-65.77-214.44a33.86,33.86,0,0,1,8.92-26c15.62-16.8,47.83-47.27,88-62.55a34.13,34.13,0,0,1,12.18-2.24v-1m0,0a35.15,35.15,0,0,0-12.53,2.31c-40.42,15.36-72.76,46-88.41,62.8a34.81,34.81,0,0,0-9.19,26.77c26.13,297.52,341.6,571.48,436.3,571.48a32.31,32.31,0,0,0,14.25-2.86c43.67-21.4,70.16-56.06,84.27-80.1a34.89,34.89,0,0,0-7.56-44.35l-105.86-89.26a34.83,34.83,0,0,0-33.33-6.47l-52.55,17.24a34.9,34.9,0,0,1-36.8-9.83c-68.52-76-113.9-144.71-134.49-178.2a34.9,34.9,0,0,1,2.44-40,580.5,580.5,0,0,0,39.87-56.05,34.76,34.76,0,0,0,3.09-30.2C881.24,300.9,848,250.05,828.88,223a34.85,34.85,0,0,0-28.5-14.72Z"/></svg>
