<svg id="Layer_1" data-name="Layer 1" xmlns="http://www.w3.org/2000/svg" viewBox="0 0 1920 1080"><defs><style>.cls-1{fill:#eac3e8;}.cls-2{fill:#ccf2ff;stroke:#000;stroke-miterlimit:10;}</style></defs><circle class="cls-1" cx="960" cy="540" r="444.91"/><path class="cls-2" d="M853.68,495.85c-7.91-38.06-30-56.88-65.75-56.88-50.78,0-80.32,40.15-80.32,109.16,0,68.18,30.79,109.58,82.4,109.58,22.89,0,42.45-9.62,54.52-26.35,7.07-10,10-18.4,12.48-36l86.56,13c-7.9,35.55-17.06,56-34.54,76.54-25.8,29.7-66.17,45.59-116.53,45.59-50.77,0-93.63-15.89-123.18-46C638.52,653.11,621,604.18,621,548.13c0-56.88,17.48-105,50.36-137.61,28.71-28,70.75-43.49,119.44-43.49,53.69,0,95.72,18.4,122.77,54.79,13.32,17.15,20.39,32.62,25.8,57.3Z"/><path class="cls-2" d="M1127.92,620.91c3.33,11.29,3.33,11.29,7.91,28.86,5-18.41,5.83-20.91,7.91-28.86l60.34-201.18c5.41-19.24,8.33-31,9.57-45.18h97.8c-5.82,12.55-9.57,22.17-20,51l-88.23,251.79c-7.07,20.5-11.24,34.72-13.32,45.17h-108.2c-2.08-10.87-6.24-25.09-13.32-45.17L979.77,425.58c-8.33-24.26-12.49-34.71-19.56-51h97.38c1.67,13.39,5.41,29.7,10,45.18Z"/></svg>
