<svg id="Layer_1" data-name="Layer 1" xmlns="http://www.w3.org/2000/svg" viewBox="0 0 1920 1080"><defs><style>.cls-1{fill:#eac3e8;}.cls-2{fill:#ccf2ff;stroke:#000;stroke-miterlimit:10;}</style></defs><circle class="cls-1" cx="925.17" cy="540" r="444.91"/><path class="cls-2" d="M617.22,324.67h615.9l-308.21,257a6.28,6.28,0,0,1-8.12-.06Z"/><path class="cls-2" d="M601.81,339.62V740.38L829.69,544.77a6.28,6.28,0,0,0,0-9.54Z"/><path class="cls-2" d="M1241.94,339.62V740.38L1014.05,544.77a6.29,6.29,0,0,1,0-9.54Z"/><path class="cls-2" d="M617.22,754.93h615.9L999,558.54a6.27,6.27,0,0,0-8-.1L924.9,611.33a6.27,6.27,0,0,1-8-.15l-60.79-52.44a6.3,6.3,0,0,0-8.18,0Z"/></svg>
