<svg xmlns="http://www.w3.org/2000/svg" viewBox="0 0 32 32"><defs><style>.cls-1{fill:#eac3e8;}.cls-2{fill:#33f;}.cls-3{fill:#306;}</style></defs><g id="Layer_2" data-name="Layer 2"><path class="cls-1" d="M25.36,27.29a23.84,23.84,0,0,0-.61-2.93l-.7-2.31H16.69s-1.21,4.24-1.34,5.24h-6A28.77,28.77,0,0,0,10.55,24L16.13,7.64A17.81,17.81,0,0,0,17,4.71h6.74a22.27,22.27,0,0,0,.88,2.93L30.16,24c.49,1.44.91,2.55,1.24,3.31Z"/><path class="cls-2" d="M16.65,27.29A23.66,23.66,0,0,0,16,24.36l-.7-2.31H8s-1.22,4.24-1.34,5.24H.6A28.26,28.26,0,0,0,1.84,24L7.41,7.64a16.85,16.85,0,0,0,.82-2.93H15a22.27,22.27,0,0,0,.88,2.93L21.45,24c.49,1.44.9,2.55,1.23,3.31Z"/><path class="cls-3" d="M11.4,27.29h-6A24.77,24.77,0,0,0,6.6,24.15L12.17,8.61A16.4,16.4,0,0,0,13,5.83h6.73a20.48,20.48,0,0,0,.88,2.78l5.6,15.54c.49,1.36.9,2.42,1.24,3.14h-6c-.21-1.23-1.32-5-1.32-5H12.74m3.64-12.07L14,18h4.85Z"/></g></svg>
